<svg width="1710.751" height="232.352" viewBox="0 0 1710.751 232.352" xmlns="http://www.w3.org/2000/svg"><g id="svgGroup" stroke-linecap="round" fill-rule="evenodd" font-size="9pt" stroke="#000" stroke-width="0.25mm" fill="#000" style="stroke:#000;stroke-width:0.25mm;fill:#000"><path d="M 732.15 228.001 L 560.25 228.001 L 560.25 222.151 L 719.55 8.851 L 678.3 8.851 A 122.147 122.147 0 0 0 664.469 9.588 Q 652.979 10.9 644.475 14.551 Q 631.2 20.251 622.5 31.351 Q 614.072 42.105 607.474 57.503 A 161.478 161.478 0 0 0 607.05 58.501 L 601.2 58.501 L 614.25 3.001 L 777.45 3.001 L 777.45 8.851 L 618 222.151 L 668.25 222.151 Q 683.545 222.151 694.708 218.737 A 53.93 53.93 0 0 0 701.7 216.076 A 55.613 55.613 0 0 0 723.531 197.797 A 65.087 65.087 0 0 0 723.6 197.701 Q 732.45 185.401 740.55 166.501 L 746.4 166.501 L 732.15 228.001 Z M 113.25 231.001 L 106.35 231.001 L 70.95 3.001 L 117.75 3.001 L 144 163.801 L 233.1 3.001 L 239.7 3.001 L 113.25 231.001 Z M 1382.55 198.751 L 1387.05 175.501 L 1396.65 150.901 L 1397.4 132.751 L 1430.7 8.851 L 1407 8.851 L 1407 3.001 L 1471.2 3.001 L 1415.7 211.801 Q 1415.1 214.051 1415.1 216.451 Q 1415.1 218.251 1416.075 219.676 A 2.964 2.964 0 0 0 1417.499 220.767 Q 1418.027 220.971 1418.691 221.05 A 7.654 7.654 0 0 0 1419.6 221.101 A 13.28 13.28 0 0 0 1424.225 220.223 Q 1425.965 219.579 1427.77 218.463 A 27.115 27.115 0 0 0 1429.425 217.351 Q 1434.34 213.79 1440.067 205.424 A 104.104 104.104 0 0 0 1440.675 204.526 A 94.692 94.692 0 0 0 1444.552 198.159 Q 1448.766 190.639 1453.345 179.966 A 301.125 301.125 0 0 0 1453.65 179.251 L 1459.5 181.201 A 235.111 235.111 0 0 1 1453.977 193.264 Q 1451.095 199.09 1448.201 203.967 A 114.097 114.097 0 0 1 1444.725 209.476 A 66.916 66.916 0 0 1 1438.457 217.481 Q 1434.67 221.588 1430.564 224.401 A 38.401 38.401 0 0 1 1428.45 225.751 A 37.805 37.805 0 0 1 1410.731 230.947 A 45.549 45.549 0 0 1 1408.5 231.001 A 47.353 47.353 0 0 1 1401.136 230.469 Q 1397.31 229.865 1394.273 228.576 A 19.025 19.025 0 0 1 1388.25 224.626 A 21.168 21.168 0 0 1 1382.399 213.549 A 30.997 30.997 0 0 1 1381.8 207.301 Q 1381.8 206.167 1381.871 204.714 A 88.738 88.738 0 0 1 1381.95 203.326 Q 1382.1 201.001 1382.55 198.751 Z M 1126.8 185.701 L 1150.35 95.851 L 1131.3 95.851 L 1131.3 90.001 L 1192.2 90.001 L 1166.85 183.751 A 277.64 277.64 0 0 0 1165.079 190.661 Q 1164.215 194.233 1163.59 197.319 A 111.201 111.201 0 0 0 1162.575 203.026 Q 1161.601 209.587 1162.595 213.222 A 9.247 9.247 0 0 0 1162.95 214.276 A 5.484 5.484 0 0 0 1166.803 217.659 Q 1167.895 217.951 1169.25 217.951 A 9.527 9.527 0 0 0 1172.6 217.27 Q 1176.567 215.772 1181.775 210.976 Q 1189.35 204.001 1197.525 191.851 Q 1205.7 179.701 1213.05 163.801 A 189.9 189.9 0 0 0 1224.326 132.143 A 208.862 208.862 0 0 0 1224.9 129.901 L 1229.55 129.901 A 218.252 218.252 0 0 1 1224.575 146.624 A 260.068 260.068 0 0 1 1220.775 157.051 Q 1215.3 171.151 1208.1 184.276 A 162.246 162.246 0 0 1 1196.756 202.179 A 141.645 141.645 0 0 1 1192.275 207.976 Q 1183.65 218.551 1174.125 224.776 A 39.229 39.229 0 0 1 1164.123 229.541 A 33.112 33.112 0 0 1 1154.4 231.001 A 48.5 48.5 0 0 1 1146.657 230.423 Q 1138.8 229.15 1133.85 225.076 A 24.22 24.22 0 0 1 1125.724 212.056 A 32.186 32.186 0 0 1 1125.075 208.876 A 45.261 45.261 0 0 1 1124.569 202.467 Q 1124.525 198.12 1125.234 193.368 A 76.559 76.559 0 0 1 1126.8 185.701 Z M 236.1 228.001 L 189.6 228.001 L 237.6 3.001 L 302.1 3.001 L 302.1 8.851 L 283.2 8.851 L 236.1 228.001 Z M 1026 191.251 L 1060.95 60.001 L 1099.95 60.001 L 1059.6 208.801 Q 1059.15 210.451 1058.7 212.401 Q 1058.25 214.351 1058.25 216.451 A 5.684 5.684 0 0 0 1058.666 218.713 Q 1059.72 221.161 1063.443 221.498 A 13.964 13.964 0 0 0 1064.7 221.551 Q 1068.75 221.551 1073.475 219.226 Q 1078.2 216.901 1083.3 211.801 A 56.201 56.201 0 0 0 1087.469 207.101 Q 1089.384 204.699 1091.32 201.833 A 109.012 109.012 0 0 0 1093.65 198.226 A 109.836 109.836 0 0 0 1098.053 190.368 Q 1101.052 184.499 1104 177.301 L 1109.85 179.101 Q 1102.65 196.351 1094.775 207.901 A 66.937 66.937 0 0 1 1087.223 217.183 A 49.041 49.041 0 0 1 1077 225.226 A 42.023 42.023 0 0 1 1061.948 230.409 A 54.855 54.855 0 0 1 1053.75 231.001 A 67.374 67.374 0 0 1 1046.679 230.654 Q 1039.961 229.943 1035.375 227.776 Q 1029.55 225.024 1026.511 220.96 A 16.617 16.617 0 0 1 1025.55 219.526 Q 1022.55 214.501 1022.55 208.951 Q 1022.55 206.377 1023.176 203.01 A 56.817 56.817 0 0 1 1023.675 200.626 A 293.798 293.798 0 0 1 1025.405 193.525 A 263.7 263.7 0 0 1 1026 191.251 Z M 1002.6 67.651 A 113.509 113.509 0 0 0 999.012 49.958 A 88.222 88.222 0 0 0 993.6 35.851 A 57.53 57.53 0 0 0 984.016 21.74 A 50.485 50.485 0 0 0 975.225 14.251 Q 963.6 6.451 946.65 6.451 Q 935.85 6.451 925.8 10.951 A 43.353 43.353 0 0 0 912.792 19.769 A 40.998 40.998 0 0 0 909.375 23.626 A 30.103 30.103 0 0 0 903.004 42.24 A 37.284 37.284 0 0 0 903 42.751 A 36.767 36.767 0 0 0 903.842 50.823 A 26.425 26.425 0 0 0 908.1 60.526 A 44.853 44.853 0 0 0 917.097 69.8 A 54.582 54.582 0 0 0 921.525 72.901 Q 929.85 78.151 939.9 82.801 Q 949.95 87.451 960.075 93.001 Q 970.2 98.551 978.525 106.276 A 56.662 56.662 0 0 1 989.924 121.206 A 66.903 66.903 0 0 1 991.95 125.326 A 54.028 54.028 0 0 1 995.611 137.048 Q 996.69 142.499 996.96 148.747 A 98.611 98.611 0 0 1 997.05 153.001 Q 997.05 168.601 990.3 182.926 Q 983.55 197.251 971.55 208.351 Q 959.55 219.451 943.65 225.901 Q 927.75 232.351 909.45 232.351 A 84.95 84.95 0 0 1 895.537 231.27 Q 887.731 229.974 881.211 227.123 A 51.378 51.378 0 0 1 879.375 226.276 A 59.704 59.704 0 0 1 861.894 213.632 A 56.766 56.766 0 0 1 858.675 209.926 Q 850.5 199.651 845.85 186.751 Q 841.2 173.851 839.25 160.351 M 845.1 160.351 Q 846.9 172.201 850.875 183.826 Q 854.85 195.451 862.05 204.976 Q 869.25 214.501 880.275 220.201 A 48.829 48.829 0 0 0 893.27 224.639 Q 899.636 225.901 907.05 225.901 Q 922.2 225.901 933.9 220.501 A 46.048 46.048 0 0 0 945.996 212.529 A 41.012 41.012 0 0 0 952.2 205.276 Q 958.8 195.451 958.8 182.551 Q 958.8 171.92 955.223 164.332 A 29.934 29.934 0 0 0 953.775 161.626 Q 948.75 153.301 940.425 147.601 A 127.107 127.107 0 0 0 925.857 139.032 A 144.056 144.056 0 0 0 922.2 137.251 Q 912.3 132.601 902.4 127.576 Q 892.5 122.551 884.175 115.726 A 50.424 50.424 0 0 1 871.142 99.336 A 57.716 57.716 0 0 1 870.825 98.701 Q 866.467 89.856 865.889 77.401 A 84.031 84.031 0 0 1 865.8 73.501 A 75.101 75.101 0 0 1 867.542 56.974 A 58.834 58.834 0 0 1 873.225 41.701 Q 880.65 28.051 892.425 18.751 Q 904.2 9.451 917.925 4.726 A 88.312 88.312 0 0 1 933.674 0.812 A 72.839 72.839 0 0 1 944.4 0.001 A 70.618 70.618 0 0 1 960.109 1.667 A 52.687 52.687 0 0 1 977.1 8.701 A 60.066 60.066 0 0 1 997.275 30.583 A 71.608 71.608 0 0 1 998.4 32.701 A 94.651 94.651 0 0 1 1006.247 54.656 A 118.655 118.655 0 0 1 1008.45 67.651 M 1478.1 196.801 L 1505.85 95.851 L 1484.85 95.851 L 1484.85 90.001 L 1546.05 90.001 L 1512.75 211.201 A 31.305 31.305 0 0 0 1512.357 213.004 A 36.418 36.418 0 0 0 1512.225 213.751 A 16.745 16.745 0 0 0 1512.032 215.378 A 13.75 13.75 0 0 0 1512 216.301 Q 1512 218.401 1512.975 219.751 A 2.906 2.906 0 0 0 1514.289 220.743 Q 1514.793 220.944 1515.43 221.033 A 7.804 7.804 0 0 0 1516.5 221.101 A 13.28 13.28 0 0 0 1521.125 220.223 Q 1522.865 219.579 1524.67 218.463 A 27.115 27.115 0 0 0 1526.325 217.351 Q 1531.24 213.79 1536.967 205.424 A 104.104 104.104 0 0 0 1537.575 204.526 A 94.692 94.692 0 0 0 1541.452 198.159 Q 1545.666 190.639 1550.245 179.966 A 301.125 301.125 0 0 0 1550.55 179.251 L 1556.4 181.201 Q 1550.888 194.409 1545.155 203.967 A 106.068 106.068 0 0 1 1541.625 209.476 Q 1534.606 219.692 1526.235 224.95 A 39.056 39.056 0 0 1 1524.9 225.751 A 39.385 39.385 0 0 1 1510.55 230.539 A 50.658 50.658 0 0 1 1503.6 231.001 A 58.779 58.779 0 0 1 1496.147 230.563 Q 1488.108 229.532 1483.483 226.076 A 16.168 16.168 0 0 1 1482.525 225.301 A 18.674 18.674 0 0 1 1476.04 211.733 A 25.359 25.359 0 0 1 1476 210.301 A 38.426 38.426 0 0 1 1476.264 205.704 A 31.286 31.286 0 0 1 1476.75 202.801 A 481.277 481.277 0 0 1 1477.291 200.341 Q 1477.508 199.368 1477.71 198.483 A 267.352 267.352 0 0 1 1478.1 196.801 Z M 26.25 228.001 L 20.1 228.001 L 67.05 8.851 L 45 8.851 L 45 3.001 L 74.1 3.001 L 26.25 228.001 Z M 1207.05 198.751 L 1235.25 90.001 L 1275.3 90.001 L 1242.6 211.201 Q 1242.3 212.551 1242.075 213.901 A 16.745 16.745 0 0 0 1241.882 215.528 A 13.75 13.75 0 0 0 1241.85 216.451 Q 1241.85 220.951 1246.05 220.951 A 14.252 14.252 0 0 0 1250.963 220.033 Q 1253.475 219.114 1256.1 217.276 A 27.344 27.344 0 0 0 1259.626 214.283 Q 1263.043 210.897 1266.75 205.424 A 97.236 97.236 0 0 0 1267.35 204.526 A 101.493 101.493 0 0 0 1271.203 198.159 Q 1275.273 190.89 1279.777 180.673 A 323.387 323.387 0 0 0 1280.4 179.251 L 1286.1 181.201 Q 1280.588 194.409 1274.855 203.967 A 106.068 106.068 0 0 1 1271.325 209.476 Q 1264.306 219.692 1255.935 224.95 A 39.056 39.056 0 0 1 1254.6 225.751 A 39.773 39.773 0 0 1 1238.223 230.801 A 49.057 49.057 0 0 1 1233.75 231.001 Q 1225.093 231.001 1219.197 228.824 A 20.348 20.348 0 0 1 1212.45 224.851 A 19.902 19.902 0 0 1 1205.72 210.409 A 24.938 24.938 0 0 1 1205.7 209.401 Q 1205.7 207.001 1206.075 204.076 Q 1206.45 201.151 1207.05 198.751 Z M 491.1 185.101 L 487.65 185.101 Q 490.35 172.951 494.475 159.451 Q 498.6 145.951 504.225 133.126 A 158.647 158.647 0 0 1 512.393 116.976 A 134.667 134.667 0 0 1 516.825 109.876 A 76.741 76.741 0 0 1 523.899 100.78 A 57.202 57.202 0 0 1 532.125 93.301 A 31.251 31.251 0 0 1 542.513 88.166 A 29.113 29.113 0 0 1 550.2 87.151 A 32.171 32.171 0 0 1 558.618 88.199 A 24.162 24.162 0 0 1 568.8 93.751 A 21.881 21.881 0 0 1 575.937 109.038 A 29.902 29.902 0 0 1 576 111.001 A 26.492 26.492 0 0 1 574.616 119.715 A 23.026 23.026 0 0 1 569.7 127.876 A 20.862 20.862 0 0 1 554.496 134.684 A 27.947 27.947 0 0 1 553.5 134.701 A 25.178 25.178 0 0 1 545.442 133.459 A 21.498 21.498 0 0 1 537.675 128.851 A 19.384 19.384 0 0 1 531.325 114.859 A 26.215 26.215 0 0 1 531.3 113.701 Q 531.3 104.251 537.6 98.326 A 21.534 21.534 0 0 1 549.641 92.685 A 29.522 29.522 0 0 1 553.8 92.401 A 30.627 30.627 0 0 1 560.946 93.194 A 22.282 22.282 0 0 1 569.475 97.201 A 15.597 15.597 0 0 1 575.499 107.903 A 23.048 23.048 0 0 1 575.7 111.001 L 569.85 110.851 A 20.641 20.641 0 0 0 569.07 105.03 A 15.706 15.706 0 0 0 564.525 97.726 A 17.866 17.866 0 0 0 556.645 93.603 Q 553.642 92.851 550.05 92.851 A 25.311 25.311 0 0 0 535.848 97.257 A 32.584 32.584 0 0 0 533.55 98.926 Q 525.9 105.001 519.3 115.051 A 146.729 146.729 0 0 0 510.432 130.622 A 172.409 172.409 0 0 0 507.3 137.326 Q 501.9 149.551 497.85 162.001 Q 493.8 174.451 491.1 185.101 Z M 324.956 229.739 A 77.959 77.959 0 0 0 339.45 231.001 Q 358.05 231.001 374.4 223.051 Q 390.75 215.101 403.125 201.526 Q 415.5 187.951 422.55 170.701 Q 429.6 153.451 429.6 135.001 A 62.148 62.148 0 0 0 428.289 121.891 A 41.897 41.897 0 0 0 416.175 99.751 A 40.952 40.952 0 0 0 409.049 94.338 Q 402.125 90.175 393.158 88.374 A 75.509 75.509 0 0 0 378.3 87.001 Q 360.45 87.001 344.325 94.951 Q 328.2 102.901 315.75 116.551 Q 303.3 130.201 296.1 147.601 Q 288.9 165.001 288.9 183.901 A 76.413 76.413 0 0 0 288.907 184.907 Q 289.005 192.41 290.585 198.756 A 39.999 39.999 0 0 0 301.95 218.701 A 39.388 39.388 0 0 0 310.198 224.651 Q 316.673 228.17 324.956 229.739 Z M 1606.106 229.739 A 77.959 77.959 0 0 0 1620.6 231.001 Q 1639.2 231.001 1655.55 223.051 Q 1671.9 215.101 1684.275 201.526 Q 1696.65 187.951 1703.7 170.701 Q 1710.75 153.451 1710.75 135.001 A 62.148 62.148 0 0 0 1709.439 121.891 A 41.897 41.897 0 0 0 1697.325 99.751 A 40.952 40.952 0 0 0 1690.199 94.338 Q 1683.275 90.175 1674.308 88.374 A 75.509 75.509 0 0 0 1659.45 87.001 Q 1641.6 87.001 1625.475 94.951 Q 1609.35 102.901 1596.9 116.551 Q 1584.45 130.201 1577.25 147.601 Q 1570.05 165.001 1570.05 183.901 A 76.413 76.413 0 0 0 1570.057 184.907 Q 1570.155 192.41 1571.735 198.756 A 39.999 39.999 0 0 0 1583.1 218.701 A 39.388 39.388 0 0 0 1591.348 224.651 Q 1597.823 228.17 1606.106 229.739 Z M 480.75 228.001 L 442.05 228.001 L 475.65 95.851 L 452.25 95.851 L 452.25 90.001 L 514.5 90.001 L 480.75 228.001 Z M 1338.45 231.001 Q 1317.75 231.001 1308.45 217.726 Q 1299.15 204.451 1299.15 182.251 Q 1299.15 165.001 1305.6 148.126 Q 1312.05 131.251 1322.925 117.451 A 103.221 103.221 0 0 1 1337.042 102.666 A 86.755 86.755 0 0 1 1347 95.326 A 56.804 56.804 0 0 1 1359.649 89.282 A 45.015 45.015 0 0 1 1373.7 87.001 A 30.649 30.649 0 0 1 1380.736 87.769 A 22.212 22.212 0 0 1 1389.15 91.651 A 25.438 25.438 0 0 1 1396.179 99.967 A 33.661 33.661 0 0 1 1398.3 104.776 A 49.853 49.853 0 0 1 1400.55 113.983 Q 1401.206 118.33 1401.288 123.238 A 84.581 84.581 0 0 1 1401.3 124.651 Q 1401.3 129.991 1400.31 137.111 A 162.706 162.706 0 0 1 1399.425 142.726 A 180.388 180.388 0 0 1 1396.407 156.601 A 220.741 220.741 0 0 1 1393.95 165.376 Q 1390.35 177.301 1385.025 188.926 Q 1379.7 200.551 1372.725 210.076 A 68.312 68.312 0 0 1 1364.38 219.582 A 55.489 55.489 0 0 1 1357.2 225.301 Q 1348.65 231.001 1338.45 231.001 Z M 338.7 225.151 A 14.809 14.809 0 0 0 344.985 223.682 Q 348.049 222.257 351.15 219.451 A 56.328 56.328 0 0 0 356.605 213.717 Q 360.075 209.551 363.45 204.151 A 147.181 147.181 0 0 0 369.963 192.545 A 186.147 186.147 0 0 0 374.7 182.401 Q 379.95 170.251 383.925 157.201 A 233.233 233.233 0 0 0 388.917 138.006 A 206.67 206.67 0 0 0 390.15 131.776 A 151.069 151.069 0 0 0 391.765 120.686 Q 392.321 115.44 392.39 110.696 A 91.872 91.872 0 0 0 392.4 109.351 A 29.383 29.383 0 0 0 392.036 104.576 Q 391.317 100.215 389.175 97.276 Q 385.95 92.851 379.05 92.851 A 14.809 14.809 0 0 0 372.765 94.321 Q 369.701 95.746 366.6 98.551 A 55.551 55.551 0 0 0 361.145 104.3 Q 358.57 107.405 356.047 111.204 A 103.689 103.689 0 0 0 354.3 113.926 Q 348.3 123.601 343.05 135.676 Q 337.8 147.751 333.825 160.801 A 233.233 233.233 0 0 0 328.833 179.997 A 206.67 206.67 0 0 0 327.6 186.226 A 151.069 151.069 0 0 0 325.985 197.317 Q 325.429 202.563 325.36 207.306 A 91.872 91.872 0 0 0 325.35 208.651 A 29.383 29.383 0 0 0 325.714 213.427 Q 326.433 217.788 328.575 220.726 Q 331.8 225.151 338.7 225.151 Z M 1619.85 225.151 A 14.809 14.809 0 0 0 1626.135 223.682 Q 1629.199 222.257 1632.3 219.451 A 56.328 56.328 0 0 0 1637.755 213.717 Q 1641.225 209.551 1644.6 204.151 A 147.181 147.181 0 0 0 1651.113 192.545 A 186.147 186.147 0 0 0 1655.85 182.401 Q 1661.1 170.251 1665.075 157.201 A 233.233 233.233 0 0 0 1670.067 138.006 A 206.67 206.67 0 0 0 1671.3 131.776 A 151.069 151.069 0 0 0 1672.915 120.686 Q 1673.471 115.44 1673.54 110.696 A 91.872 91.872 0 0 0 1673.55 109.351 A 29.383 29.383 0 0 0 1673.186 104.576 Q 1672.467 100.215 1670.325 97.276 Q 1667.1 92.851 1660.2 92.851 A 14.809 14.809 0 0 0 1653.915 94.321 Q 1650.851 95.746 1647.75 98.551 A 55.551 55.551 0 0 0 1642.295 104.3 Q 1639.72 107.405 1637.197 111.204 A 103.689 103.689 0 0 0 1635.45 113.926 Q 1629.45 123.601 1624.2 135.676 Q 1618.95 147.751 1614.975 160.801 A 233.233 233.233 0 0 0 1609.983 179.997 A 206.67 206.67 0 0 0 1608.75 186.226 A 151.069 151.069 0 0 0 1607.135 197.317 Q 1606.579 202.563 1606.51 207.306 A 91.872 91.872 0 0 0 1606.5 208.651 A 29.383 29.383 0 0 0 1606.864 213.427 Q 1607.583 217.788 1609.725 220.726 Q 1612.95 225.151 1619.85 225.151 Z M 1351.35 217.801 A 13.19 13.19 0 0 0 1356.864 216.523 Q 1360.239 214.981 1363.725 211.576 Q 1369.204 206.227 1374.294 197.942 A 107.312 107.312 0 0 0 1375.95 195.151 A 148.711 148.711 0 0 0 1383.144 180.795 A 179.482 179.482 0 0 0 1386.525 172.501 Q 1391.25 160.051 1393.95 147.301 A 129.961 129.961 0 0 0 1396.057 134.263 A 99.977 99.977 0 0 0 1396.65 123.601 A 61.644 61.644 0 0 0 1396.377 117.646 Q 1396.027 114.039 1395.225 111.001 A 24.616 24.616 0 0 0 1393.976 107.37 Q 1393.136 105.46 1392.025 103.998 A 12.925 12.925 0 0 0 1390.875 102.676 A 9.859 9.859 0 0 0 1384.847 99.838 A 13.486 13.486 0 0 0 1383.3 99.751 A 11.882 11.882 0 0 0 1378.142 101.006 Q 1376.323 101.877 1374.464 103.353 A 31.581 31.581 0 0 0 1371.15 106.426 A 63.974 63.974 0 0 0 1365.724 113.071 Q 1362.291 117.859 1359 123.976 A 164.004 164.004 0 0 0 1351.523 139.958 A 195.185 195.185 0 0 0 1348.5 147.901 Q 1343.85 160.951 1341.075 173.926 A 137.967 137.967 0 0 0 1339.178 184.806 Q 1338.423 190.555 1338.317 195.725 A 81.715 81.715 0 0 0 1338.3 197.401 Q 1338.3 203.701 1339.721 208.193 A 19.073 19.073 0 0 0 1341.6 212.401 A 11.487 11.487 0 0 0 1344.855 215.935 Q 1347.136 217.51 1350.192 217.756 A 14.432 14.432 0 0 0 1351.35 217.801 Z M 1119.45 96.001 L 1023.45 96.001 L 1023.45 90.001 L 1119.45 90.001 L 1119.45 96.001 Z M 260.1 228.001 L 168.6 228.001 L 168.6 222.151 L 260.1 222.151 L 260.1 228.001 Z M 845.1 160.351 L 847.8 180.301 A 213.251 213.251 0 0 0 851.246 189.759 A 167.472 167.472 0 0 0 854.025 196.426 Q 857.25 203.701 861.45 210.001 L 828.45 231.001 L 823.35 231.001 L 839.25 160.351 L 845.1 160.351 Z M 1008.45 67.651 L 1023.75 0.001 L 1018.65 0.001 L 987 19.201 A 148.54 148.54 0 0 1 987.837 20.517 Q 992.935 28.617 995.85 35.626 Q 999 43.201 1001.7 51.751 L 1002.6 67.651 M 1530.179 50.122 A 24.676 24.676 0 0 0 1539.6 51.901 A 28.537 28.537 0 0 0 1540.049 51.898 A 23.931 23.931 0 0 0 1552.575 48.301 Q 1558.35 44.701 1561.8 38.851 Q 1565.25 33.001 1565.25 26.251 Q 1565.25 19.351 1561.8 13.576 Q 1558.35 7.801 1552.575 4.276 A 23.68 23.68 0 0 0 1548.729 2.38 A 25.222 25.222 0 0 0 1539.6 0.751 A 28.882 28.882 0 0 0 1538.706 0.765 A 24.214 24.214 0 0 0 1526.625 4.276 Q 1520.85 7.801 1517.55 13.576 Q 1514.25 19.351 1514.25 26.251 Q 1514.25 33.001 1517.55 38.851 Q 1520.85 44.701 1526.625 48.301 A 23.518 23.518 0 0 0 1530.179 50.122 Z M 49.2 228.001 L 0 228.001 L 0 222.151 L 49.2 222.151 L 49.2 228.001 Z M 839.25 160.351 L 845.1 160.351 L 839.25 160.351 Z M 1008.45 67.651 L 1002.6 67.651 L 1008.45 67.651 Z" vector-effect="non-scaling-stroke"/></g></svg>
